<?xml version="1.0" standalone="no"?>
<!DOCTYPE svg PUBLIC "-//W3C//DTD SVG 20010904//EN"
 "http://www.w3.org/TR/2001/REC-SVG-20010904/DTD/svg10.dtd">
<svg version="1.0" xmlns="http://www.w3.org/2000/svg"
 width="260.000000pt" height="260.000000pt" viewBox="0 0 260.000000 260.000000"
 preserveAspectRatio="xMidYMid meet">
<metadata>
Created by potrace 1.11, written by Peter Selinger 2001-2013
</metadata>
<g transform="translate(0.000000,260.000000) scale(0.100000,-0.100000)"
fill="#000000" stroke="none">
<path d="M259 2580 c-25 -4 -61 -15 -79 -25 -48 -25 -119 -100 -143 -153 l-22
-47 0 -1055 0 -1055 28 -57 c32 -65 89 -121 156 -152 l46 -21 1055 0 1055 0
57 28 c65 32 121 89 152 156 l21 46 0 1055 0 1055 -21 46 c-31 67 -87 124
-152 156 l-57 28 -1025 1 c-564 1 -1046 -2 -1071 -6z m901 -760 l0 -80 -200 0
-200 0 0 -540 0 -540 -90 0 -90 0 0 540 0 540 -195 0 -195 0 0 80 0 80 485 0
485 0 0 -80z m350 -175 l0 -255 320 0 320 0 0 255 0 255 85 0 85 0 0 -620 0
-620 -85 0 -85 0 0 285 0 285 -320 0 -320 0 0 -285 0 -285 -85 0 -85 0 0 620
0 620 85 0 85 0 0 -255z"/>
</g>
</svg>
